<svg width="290" height="56" viewBox="0 0 290 56" fill="none" xmlns="http://www.w3.org/2000/svg">
<path fill-rule="evenodd" clip-rule="evenodd" d="M0 51.9769H13.3311L16.511 43.2033H33.878L36.9356 51.9769H50.5113L31.7989 2.94092H18.5901L0 51.9769ZM126.095 51.9769H137.958V2.94092H126.095V51.9769ZM123.282 16.4021H111.419V35.5117C111.419 41.8816 107.505 43.444 104.937 43.444C101.145 43.444 99.0661 41.7614 99.0661 37.0742V16.4021H87.2027V37.7953C87.2027 47.1698 90.2602 53.0589 100.656 53.0589C104.814 53.0589 109.462 50.7754 111.663 47.1698H111.786V51.9773H123.282V16.4021ZM85.8562 51.9769H51.3666L51.2443 42.8428L69.3452 25.1754H52.712V16.2816H84.5108V25.1754L66.4099 43.0831H85.8562V51.9769ZM25.3147 16.5226H25.1924L19.4441 33.7093H30.8183L25.3147 16.5226Z" fill="white"/>
<path d="M164.327 5.29772H154.747V18.6222H163.536V19.8379H174.164V5.29772H172.136V8.67079H164.327V5.29772Z" fill="white"/>
<path d="M199.318 40.7212V40.2041H199.307V33.5949H199.318V29.7664H190.226V35.9372H184.91V36.9714H192.199V40.7212H199.318Z" fill="white"/>
<path d="M201.668 18.2402H203.006V16.3842H204.093V13.446H205.459V11.9769H201.668V18.2402Z" fill="white"/>
<path d="M204.871 14.1786V16.384H208.34V14.1786H204.871Z" fill="white"/>
<path d="M208.995 17.1205H203.784V19.319H208.995V17.1205Z" fill="white"/>
<path d="M165.101 7.93784H171.353V4.56477H171.357L171.353 0H165.101V7.93784Z" fill="white"/>
<path d="M181.515 7.63674H186.387V4.57206H186.39L186.387 0.424632H181.515V7.63674Z" fill="white"/>
<path d="M187.282 7.63706H190.383V5.51585H187.282V7.63706Z" fill="white"/>
<path d="M199.321 41.4903H194.873V42.0861H199.321V41.4903Z" fill="white"/>
<path d="M200.097 34.3312V39.4678H201.322V34.3312H200.097Z" fill="white"/>
<path d="M187.532 50.1608V46.8665H181.211V47.9966H185.533V50.1608H187.532Z" fill="white"/>
<path d="M208.067 24.1132V22.1681H203.567V24.1132H208.067Z" fill="white"/>
<path d="M194.092 43.7491V42.8211H194.085V41.4582H191.422V37.705H184.91V41.2253H190.052V43.7491H194.092Z" fill="white"/>
<path d="M189.28 46.1324V41.9615H180.633V46.0913H188.305V46.1324H189.28Z" fill="white"/>
<path d="M174.93 5.29772V19.8413H184.119V14.6259H189.938V8.41053H186.089V8.40711H180.636V5.29772H174.93Z" fill="white"/>
<path d="M150.493 19.36V23.4419H162.754V19.36H150.493Z" fill="white"/>
<path d="M171.354 27.0337V20.5786H163.534V24.1777H162.793V27.0337H171.354Z" fill="white"/>
<path d="M177.01 56H184.761V48.7265H180.822V48.7299H177.01V56Z" fill="white"/>
<path d="M202.105 34.7803H202.802V26.8596H202.307V24.1132H202.802V22.1681H192.062V29.0307H200.103V33.5954H202.105V34.7803Z" fill="white"/>
<path d="M208.999 20.0548H203.015V18.9795H200.904V18.9761H200.196V21.4348H208.999V20.0548Z" fill="white"/>
<path d="M206.11 26.1261V24.8453H203.071V26.1261H206.11Z" fill="white"/>
<path d="M179.852 41.2271H184.119V33.5735H174.106V43.7544H179.852V41.2271Z" fill="white"/>
<path d="M199.423 21.4345V18.2395H200.894V10.5722H197.743V19.2805H192.062V21.4345H199.423Z" fill="white"/>
<path d="M190.716 15.3638H190.712V18.5417H196.953V8.40538H190.716V15.3638Z" fill="white"/>
<path d="M184.124 20.5786H172.13V27.77H170.927V32.8381H184.124V20.5786Z" fill="white"/>
<path d="M188.776 15.3638H184.898V19.843H184.909V26.5138H191.262V19.2814H189.939V15.3672L188.776 15.3638Z" fill="white"/>
<path d="M188.182 30.9694L189.454 30.966V29.7606H188.182V30.9694Z" fill="white"/>
<path d="M191.263 29.0283V27.2579H184.91V35.2026H189.452V31.7028H187.4V29.0283H191.263Z" fill="white"/>
<path d="M225 4.08533V51.9147C225 51.9627 225.231 52 225.508 52C225.785 52 226 51.96 226 51.9147V4.08533C226 4.03733 225.769 4 225.508 4C225.246 4 225 4.03733 225 4.08533Z" fill="white"/>
<path fill-rule="evenodd" clip-rule="evenodd" d="M242 0.0166016H289.343V33.1635H242V0.0166016ZM265.669 4.01953L246.016 16.6076L265.669 29.1599L285.321 16.6076L265.669 4.01953Z" fill="white"/>
<path fill-rule="evenodd" clip-rule="evenodd" d="M259.8 22.4565C261.36 24.0241 263.438 24.8872 265.651 24.8878C265.65 24.8878 265.649 24.8878 265.649 24.8878H265.653C265.652 24.8878 265.651 24.8878 265.651 24.8878C267.875 24.8872 269.965 24.0241 271.529 22.4565C272.484 21.5044 273.177 20.3512 273.573 19.0953C273.357 18.8784 270.317 15.9751 265.546 14.8059L265.55 14.8098C261.3 13.7772 257.861 14.4801 257.627 14.5325C257.461 15.1853 257.373 15.8687 257.373 16.5723C257.373 18.7977 258.236 20.8924 259.8 22.4565ZM258.055 13.2807C259.329 10.3481 262.252 8.29248 265.649 8.29248C267.874 8.29248 269.965 9.1557 271.529 10.7198C273.097 12.2799 273.96 14.3588 273.96 16.5723C273.96 16.955 273.934 17.3345 273.884 17.7086C270.389 14.8028 265.886 13.0399 261.008 13.0755C259.98 13.0755 259.015 13.1426 258.055 13.2807Z" fill="white"/>
<path d="M280.431 36.086C276.848 36.086 273.91 38.8499 273.636 42.3582C274.028 42.3899 274.405 42.4533 274.769 42.5483C274.947 39.5785 277.41 37.2264 280.431 37.2264C283.453 37.2264 286.11 39.7646 286.11 42.8968C286.11 46.0289 283.567 48.5671 280.431 48.5671C280.237 48.5671 280.043 48.5592 279.857 48.5394C279.449 48.4998 279.053 48.4127 278.673 48.286C276.662 47.6326 275.149 45.8864 274.828 43.7521C274.448 43.6293 274.052 43.5382 273.644 43.4986C273.902 46.4011 275.981 48.7849 278.729 49.4897C279.097 49.5848 279.477 49.6481 279.865 49.6798C280.051 49.6956 280.241 49.7035 280.435 49.7035C284.201 49.7035 287.25 46.6545 287.25 42.8928C287.25 39.131 284.201 36.082 280.435 36.082" fill="white"/>
<path d="M257.7 42.3814C257.434 38.8573 254.496 36.0854 250.901 36.0854C247.305 36.0854 244.086 39.1344 244.086 42.8962C244.086 46.658 247.139 49.707 250.901 49.707C251.107 49.707 251.308 49.699 251.503 49.6792C251.491 49.509 251.483 49.3387 251.483 49.1605C251.483 48.9467 251.495 48.7408 251.51 48.5309C251.312 48.5507 251.107 48.5666 250.901 48.5666C247.768 48.5666 245.222 46.0244 245.222 42.8962C245.222 39.768 247.765 37.2259 250.901 37.2259C254.037 37.2259 256.397 39.5938 256.563 42.5755C256.567 42.6824 256.579 42.7853 256.579 42.8962C256.579 43.2011 256.547 43.4941 256.5 43.7871C256.167 45.8937 254.674 47.6123 252.698 48.2735C252.651 48.5626 252.623 48.8596 252.623 49.1605C252.623 49.2674 252.631 49.3743 252.639 49.4773C255.363 48.7645 257.422 46.4006 257.688 43.5218C257.707 43.3159 257.719 43.1061 257.719 42.8962C257.719 42.722 257.711 42.5517 257.696 42.3814" fill="white"/>
<path d="M258.302 43.4905C258.496 43.4905 258.686 43.5024 258.876 43.5182C259.284 43.5618 259.68 43.6489 260.056 43.7716C262.068 44.425 263.58 46.1673 263.905 48.3056C264.281 48.4283 264.677 48.5115 265.085 48.555C264.828 45.6525 262.749 43.2767 259.997 42.5679C259.632 42.4729 259.252 42.4095 258.864 42.3778C258.682 42.362 258.488 42.3501 258.298 42.3501C258.092 42.3501 257.894 42.362 257.696 42.3778C257.712 42.5481 257.72 42.7184 257.72 42.8965C257.72 43.1064 257.708 43.3163 257.688 43.5222C257.894 43.5024 258.096 43.4905 258.302 43.4905Z" fill="white"/>
<path d="M263.961 49.5136C263.779 52.4834 261.32 54.8394 258.303 54.8394C255.285 54.8394 252.81 52.4676 252.64 49.4819C252.632 49.379 252.624 49.272 252.624 49.1651C252.624 48.8642 252.656 48.5672 252.704 48.2742C253.036 46.1676 254.525 44.4491 256.505 43.7878C256.548 43.4987 256.584 43.2057 256.584 42.9008C256.584 42.7899 256.576 42.687 256.568 42.5801C253.844 43.2968 251.785 45.6568 251.516 48.5355C251.5 48.7454 251.488 48.9553 251.488 49.1651C251.488 49.3394 251.5 49.5096 251.508 49.6839C251.773 53.2041 254.711 55.9838 258.307 55.9838C261.902 55.9838 264.824 53.2159 265.098 49.7076C264.71 49.6759 264.329 49.6126 263.965 49.5175" fill="white"/>
<path d="M265.664 48.5865C265.47 48.5865 265.28 48.5786 265.094 48.5549C264.686 48.5153 264.29 48.4282 263.91 48.3054C261.899 47.652 260.386 45.9058 260.061 43.7715C259.685 43.6487 259.285 43.5616 258.881 43.5181C259.135 46.4206 261.214 48.8043 263.966 49.5092C264.33 49.6002 264.71 49.6636 265.098 49.6992C265.288 49.7151 265.474 49.723 265.664 49.723C265.874 49.723 266.076 49.7111 266.278 49.6953C266.262 49.5131 266.254 49.331 266.254 49.1409C266.254 48.939 266.266 48.741 266.282 48.543C266.08 48.5667 265.87 48.5786 265.664 48.5786" fill="white"/>
<path d="M272.454 42.3619C272.173 38.8575 269.243 36.1016 265.659 36.1016C262.076 36.1016 259.142 38.8655 258.864 42.3778C259.252 42.4055 259.633 42.4688 259.997 42.5639C260.179 39.5901 262.638 37.238 265.655 37.238C268.673 37.238 271.132 39.5901 271.314 42.5559C271.322 42.6708 271.334 42.7896 271.334 42.9084C271.334 43.1974 271.302 43.4825 271.262 43.7597C270.942 45.8821 269.445 47.6165 267.457 48.2857C267.413 48.5668 267.386 48.848 267.386 49.141C267.386 49.2598 267.398 49.3786 267.402 49.4934C270.138 48.7727 272.197 46.3929 272.442 43.5023C272.462 43.3083 272.474 43.1103 272.474 42.9123C272.474 42.7143 272.462 42.5441 272.446 42.358" fill="white"/>
<path d="M273.073 43.4749C273.263 43.4749 273.457 43.4828 273.643 43.5026C274.055 43.5382 274.451 43.6293 274.827 43.7521C276.839 44.4054 278.351 46.1517 278.672 48.2899C279.052 48.4127 279.448 48.4998 279.856 48.5394C279.599 45.6329 277.52 43.2571 274.768 42.5483C274.4 42.4533 274.023 42.3899 273.635 42.3582C273.449 42.3424 273.259 42.3345 273.069 42.3345C272.859 42.3345 272.657 42.3464 272.451 42.3662C272.467 42.5483 272.479 42.7304 272.479 42.9166C272.479 43.1145 272.467 43.3125 272.447 43.5066C272.653 43.4828 272.859 43.4749 273.069 43.4749" fill="white"/>
<path d="M278.73 49.4935C278.548 52.4594 276.089 54.8194 273.072 54.8194C270.055 54.8194 267.596 52.4633 267.409 49.4975C267.402 49.3787 267.39 49.2638 267.39 49.1451C267.39 48.852 267.417 48.5709 267.461 48.2897C267.782 46.1673 269.278 44.433 271.266 43.7677C271.306 43.4905 271.338 43.2054 271.338 42.9164C271.338 42.7976 271.326 42.6788 271.318 42.564C268.586 43.2846 266.526 45.6605 266.277 48.5511C266.261 48.7491 266.249 48.9431 266.249 49.149C266.249 49.3351 266.261 49.5173 266.273 49.7034C266.55 53.2038 269.484 55.9598 273.064 55.9598C276.644 55.9598 279.582 53.1959 279.855 49.6875C279.467 49.6559 279.091 49.5925 278.722 49.4975" fill="white"/>
</svg>
